# xmcd
#
# Track frame offsets: 
#        150
#        15232
#        33487
#        54550
#        71280
#        89042
#        99857
#        117945
#        140897
#        160930
#
# Disc length: 2498 seconds
#
# Revision: 4
# Processed by: cddbd v1.5.2PL0 Copyright (c) Steve Scherf et al.
# Submitted via: ExactAudioCopyFreeDBPlugin 1.0
#
DISCID=7f09c00a
DTITLE=Various Artist - One Voice
DYEAR=1900
DGENRE=
TTITLE0=Michael Omartian - Atlanta Reel '96
TTITLE1=John Berry - One Song
TTITLE2=Amy Grant and Patty Loveless - Every Kind Of People
TTITLE3=Lorrie Morgan - One Down, With One More To Go
TTITLE4=Mac McAnally - It's Everything
TTITLE5=Mark O'Conner - Except From The Fiddle Concerto
TTITLE6=Willie Nelson and Marty Stuart - We Must Believe In Magic
TTITLE7=Nanci Griffith, Raul Malo, and Donna Summer - From A Distance
TTITLE8=Karla Bonoff and The Nitty Gritty Dirt Band - You Believed In Me
TTITLE9=Trisha Yearwood - The Flame
EXTD=
EXTT0=Vince Gill, Chet Atkins, Alison Krauss, Bela Fleck, Paul Frankli
EXTT0=n
EXTT1=John Berry
EXTT2=Amy Grant, Patty Loveless
EXTT3=Lorrie Morgan
EXTT4=Mac McAnally
EXTT5=Mark O'Connor
EXTT6=Willie Nelson, Marty Stuart
EXTT7=Nanci Griffith, Raul Malo, Donna Summer
EXTT8=Karla Bonoff, The Nitty Gritty Dirt Band
EXTT9=Trisha Yearwood
PLAYORDER=
